<svg xmlns="http://www.w3.org/2000/svg" width="195.316" height="69.165" viewBox="0 0 195.316 69.165"><defs><style>.a{fill:none;stroke:#000;stroke-width:3px;fill-rule:evenodd;}</style></defs><g transform="translate(1.821 1.5)"><path class="a" d="M3335.007,2712.146c3.375,6.392,20.328,25.49,27.039,33.669l-40.922,16.152c.421.1-14.4,5.341-13.693,5.51,6.664,1.59,5.513,1.266,14.293,2.51,10.4,1.469,14.514,1.159,24.877,1.159,2.223,0,31.167-9.728,35.614-11.236l71.308-23.544c4.8-1.628,13.261-3.931,17.51-6.194,9.291-4.923,20.8-19.1-2.025-19.1-6.551,0-38.354,11.594-46.811,14.373-19.1,6.393-11.99,6.631-31.485-1.151l-48.518-19.3C3340.962,2705,3336,2710.677,3335.007,2712.146Z" transform="translate(-3290.34 -2705)"/><path class="a" d="M2917,3630.725c.913,1.35,12.189,14.531,12.507,14.531,1.5,0,9.55-3.506,15.379-5.661.678-.251,3.156-1.446,3.934-1.689.225-.072-7.315-2.8-6.928-2.891,0,0-14.092-6-18.221-7.982-1.866-.953-2.263-.834-3.772.556A16.46,16.46,0,0,0,2917,3630.725Z" transform="translate(-2917 -3589.83)"/></g></svg>