<svg xmlns="http://www.w3.org/2000/svg" width="218" height="202.275" viewBox="0 0 218 202.275"><defs><style>.a{fill-rule:evenodd;}</style></defs><path d="M3527,1695h8.394v8.393H3527ZM3527,1695Z" transform="translate(-3510.213 -1678.27)"/><path d="M3825,1695h8.337v8.393H3825ZM3825,1695Z" transform="translate(-3791.427 -1678.27)"/><path d="M4122,1695h8.394v8.393H4122ZM4122,1695Z" transform="translate(-4071.696 -1678.27)"/><line x2="86" y2="109" transform="translate(42 50.465)"/><path d="M3245.787,1599.157h151.152v-4.394H3249.5c-13.688.169-16.054-7.154-16.054-16.054V1417.941c0-8.9,3.718-15.378,16.054-15.773h176.878c12.843,0,16.223,6.534,16.223,15.773v66.21H3447V1414.73a16.78,16.78,0,0,0-16.787-16.73H3245.787A16.78,16.78,0,0,0,3229,1414.73v167.7A16.78,16.78,0,0,0,3245.787,1599.157Z" transform="translate(-3229 -1398)"/><path class="a" d="M6791.519,4591a17.547,17.547,0,1,1-17.52,17.575A17.55,17.55,0,0,1,6791.519,4591Zm-10.7,13.8-2.253,1.746,8.45,11.041,17.463-15.941-1.8-2.141-15.21,13.914Z" transform="translate(-6591.602 -4423.819)"/></svg>