<svg xmlns="http://www.w3.org/2000/svg" width="205.262" height="203.588" viewBox="0 0 205.262 203.588"><defs><style>.a{fill-rule:evenodd;}</style></defs><g transform="translate(-2250.868 -2344)"><path class="a" d="M2353.939,2355.562v40.566h-74.5c-11.681,0-19.866,8.225-19.866,19.469v100.959c-9.218,0-8.7,0-8.7,9.1,0,12.277,11.562,21.932,23.6,21.932h158.889c7.311,0,13.827-3.854,18.277-9.456,4.41-5.562,4.49-10.847,4.49-17.84,0-4.569-5.364-3.735-8.7-3.735v-99.331c3.973-.914,7.867-6.158,7.867-11.165V2356.4c0-6.754-6.039-12.4-12.833-12.4H2367.17a12.221,12.221,0,0,0-9.019,3.377C2356.243,2349.285,2353.939,2351.907,2353.939,2355.562Zm22.528,83.2-.159-19.271c0-14.343-17.8-1.589-17.879-11.959v-52.725c0-2.463,3.615-6.159,6.635-6.159l79.067.159c2.9,0,6.953,4.013,6.953,6.874l-.278,51.374c0,5.006-4.927,5.96-7.589,5.96-6.357-.04-31.786-.795-33.852.238C2406.465,2415.558,2378.135,2438.324,2376.467,2438.762ZM2270.739,2516.6h-6.516V2413.452c0-7.152,7.629-13.469,14.939-13.469l74.776-.12c.2,13.867,3.735,16.608,12.992,16.608h5.205V2438.6a4.916,4.916,0,0,0,4.768,4.768c2.3,0,3.536-1.748,4.967-2.86,1.589-1.271,2.7-2.186,4.331-3.457,2.9-2.3,24.991-20.582,26.263-20.582h30.316V2516.6h-73.227a1.512,1.512,0,0,1-1.192-.517c-1.112-1.113-1.828-3.775-3.059-6.914-4.927-12.793-22.17-23.76-35.64-23.76-6.715,0-13.549-.437-20.184.079a42.235,42.235,0,0,0-14.462,3.377C2286.156,2492.837,2271.971,2503.326,2270.739,2516.6Zm39.335-27.455c6.357,0,13.112-.715,19.667-.2,15.138,1.192,31.349,12.118,34.805,27.773h-89.278C2276.461,2501.181,2295.453,2489.142,2310.074,2489.142Zm-55.109,31.984h196.953c2.066,11.642-9.178,22.647-18.158,22.647H2275.785C2266.806,2543.774,2254.012,2538.052,2254.966,2521.126Z" transform="translate(0)"/><path class="a" d="M3313,4183.3a40.5,40.5,0,0,0,5.125,20.582,57.285,57.285,0,0,0,3.258,5.006,34.4,34.4,0,0,0,7.946,7.787,28.542,28.542,0,0,0,5.086,2.782c21.892,9.3,46.526-27.773,31.428-50.46a38.912,38.912,0,0,0-3.06-3.974c-3.616-4.132-11.6-9.019-19.151-9.019-5.324,0-9.894.2-14.622,2.741C3320.47,4163.39,3313,4172.648,3313,4183.3Zm3.616.914c0-13.668,12.118-24.634,23.4-24.634,8.662,0,13.429,1.47,19.508,7.629,18.754,18.992-1.748,49.665-17.562,50.062C3329.131,4217.585,3316.616,4200.023,3316.616,4184.21Z" transform="translate(-1019.931 -1740.005)"/><path class="a" d="M5445,3232.63c0,2.265,5.125,1.709,7.947,1.709,3.934,0,4.331-3.616-.914-3.616C5449.49,3230.724,5445,3230.445,5445,3232.63Z" transform="translate(-3067.222 -851.481)"/><path class="a" d="M6511,3233.583c0,2.186,5.126,1.709,8.344,1.709,4.053,0,4.608-3.576-.954-3.576C6515.729,3231.715,6511,3231.438,6511,3233.583Z" transform="translate(-4090.868 -852.433)"/><path class="a" d="M5974,3232.437c0,2.344,3.5,1.867,8.661,1.867,3.814,0,4.648-3.615-1.351-3.615C5978.808,3230.688,5974,3230.41,5974,3232.437Z" transform="translate(-3575.204 -851.446)"/></g></svg>