<svg xmlns="http://www.w3.org/2000/svg" width="218.147" height="203.588" viewBox="0 0 218.147 203.588"><g transform="translate(-3229 -1398)"><path d="M3825,2152.958a14.554,14.554,0,0,0,14.511,14.56h159.958a14.565,14.565,0,0,0,14.559-14.56v-145.4A14.533,14.533,0,0,0,3999.469,1993H3839.511A14.523,14.523,0,0,0,3825,2007.56Zm4.69-145.594c0-4.1,3.322-9.038,8.7-9.038h162.352c5.277,0,8.55,5.521,8.55,9.625v144.128a10.043,10.043,0,0,1-10.211,10.065H3837.165a7.465,7.465,0,0,1-7.475-7.426Z" transform="translate(-566.881 -565.93)"/><path d="M3527,1695h7.28v7.28H3527ZM3527,1695Z" transform="translate(-283.441 -282.49)"/><path d="M3825,1695h7.231v7.28H3825ZM3825,1695Z" transform="translate(-566.881 -282.49)"/><path d="M4122,1695h7.28v7.28H4122ZM4122,1695Z" transform="translate(-849.371 -282.49)"/><line x2="75" y2="95" transform="translate(3265 1441.629)"/><path d="M4122,2291h7.28v7.231H4122ZM4122,2291Z" transform="translate(-849.371 -849.371)"/><path d="M4420,2291h7.28v7.231H4420ZM4420,2291Z" transform="translate(-1132.811 -849.371)"/><path d="M4717,2291h7.28v7.231H4717ZM4717,2291Z" transform="translate(-1415.301 -849.371)"/><path d="M4122,2929h159.958v4.69H4122ZM4122,2929Z" transform="translate(-849.371 -1456.2)"/><path d="M4122,3679h159.958v4.69H4122ZM4122,3679Z" transform="translate(-849.371 -2169.557)"/><path d="M4122,3309h159.958v4.69H4122ZM4122,3309Z" transform="translate(-849.371 -1817.634)"/><path d="M4122,4059h159.958v4.69H4122ZM4122,4059Z" transform="translate(-849.371 -2530.991)"/><path d="M4122,4994h21.839v4.349H4122ZM4122,4994Z" transform="translate(-849.371 -3420.31)"/><path d="M3243.56,1572.469h7.279v-3.811h-4.055c-11.872.147-13.924-6.2-13.924-13.924V1415.3c0-7.719,3.225-13.338,13.924-13.68H3400.2c11.139,0,14.071,5.667,14.071,13.68v4.495h3.811v-7.28a14.554,14.554,0,0,0-14.56-14.511H3243.56a14.554,14.554,0,0,0-14.56,14.511v145.448A14.554,14.554,0,0,0,3243.56,1572.469Z" transform="translate(0 0)"/></g></svg>